<?xml version="1.0" encoding="utf-8"?>
<!-- Generator: Adobe Illustrator 19.2.1, SVG Export Plug-In . SVG Version: 6.00 Build 0)  -->
<svg version="1.1" id="dartboard" xmlns="http://www.w3.org/2000/svg" xmlns:xlink="http://www.w3.org/1999/xlink" x="0px" y="0px"
	 viewBox="0 0 787 774" style="enable-background:new 0 0 787 774;" xml:space="preserve">
<style type="text/css">
	.st0{fill:#F7E9CD;}
	.st1{fill:#ED3737;}
	.st2{fill:#4F9962;}
</style>
<g id="areas">
	<g id="s">
		<path id="s19" class="st0" d="M361.3,677.1l10.8-82.4c-17.8-2.5-35.2-7.3-51.9-14.3c-2.2-0.9-4.4-1.9-6.6-2.9l-35.7,75
			c3.6,1.7,8.6,3.9,12.2,5.4C315.3,668.5,334.3,673.5,361.3,677.1L361.3,677.1z"/>
		<path id="s14" d="M113.3,349.4l82,10.7c2.5-17.8,7.3-35.2,14.3-51.9c0.9-2.2,1.9-4.4,2.9-6.6L137.9,266c-1.7,3.6-5,11.3-6.5,15
			C120.7,306.2,116.9,322.3,113.3,349.4L113.3,349.4z"/>
		<path id="s4" class="st0" d="M604.2,180.4c-1.5-1.5,0,0-1.5-1.5l-57.4,60.6c0.9,0.8,1.7,1.7,2.6,2.5
			c13.7,13.7,25.3,29.1,34.6,45.8l73.5-40c-14-25.3-29.5-45.2-50.2-66L604.2,180.4z"/>
		<path id="s16" class="st0" d="M199.8,598.5l57-60.2c-0.9-0.8-1.7-1.7-2.6-2.5c-13.7-13.7-25.3-29.1-34.6-45.8l-72.7,39.6
			c14,25.4,26.4,42.6,47.2,63.3C195.6,594.4,198.3,597.1,199.8,598.5L199.8,598.5z"/>
		<path id="s9" class="st0" d="M214.3,297.9c9-18.4,20.6-35.2,34.6-50.3l-60.1-56.9c-21.5,23-35.5,43.5-49.2,71.7L214.3,297.9z"/>
		<path id="s7" d="M309.9,575.7c-18.4-9-35.2-20.6-50.3-34.6l-57,60.1c23,21.5,43.4,35.7,71.6,49.4L309.9,575.7z"/>
		<path id="s8" d="M144.9,526.1l72.7-39.5c-2.9-5.4-5.5-11-8-16.7c-5.6-13.2-9.7-26.9-12.5-40.8l-81.3,15.1
			c4.1,21.2,8.4,36.2,16.9,56.3C136.6,509.3,140.4,517.7,144.9,526.1L144.9,526.1z"/>
		<path id="s12" d="M191.5,187.8l60.1,56.9c0.8-0.9,1.7-1.7,2.5-2.6c13.7-13.7,29.1-25.3,45.8-34.6l-39.6-72.8
			C235.2,150,224,157.6,202,177.4C200.5,179,192.9,186.2,191.5,187.8L191.5,187.8z"/>
		<path id="s1" class="st0" d="M432.2,318.8 M443.3,81.1l-13.4,102.2c17.8,2.5,35.2,7.3,51.9,14.3c2.2,0.9,4.4,1.9,6.6,2.9
			l35.8-75.3c-3.6-1.7-11.6-5-15.2-6.6c-25.3-10.7-41.4-14.3-68.4-17.9L443.3,81.1z"/>
		<path id="s18" d="M492.1,202.3c18.4,9,35.2,20.6,50.3,34.6l57.3-60.5c-23-21.5-43.6-35.8-71.8-49.4L492.1,202.3z"/>
		<path id="s20" d="M349.7,102.7l15.2,81.7c11.8-2.1,23.9-3.1,36.1-3.1c8.4,0,16.7,0.5,24.9,1.5l10.8-82.6
			c-12.6-1.5-25-2.1-37.9-2.1C380.3,98.1,367.8,99.5,349.7,102.7L349.7,102.7z"/>
		<path id="s5" class="st0" d="M263.9,132.8l39.6,72.8c5.4-2.9,11-5.5,16.7-8c13.2-5.6,26.9-9.7,40.8-12.5l-15-81.7
			c-21.2,4.1-36.8,8.7-56.9,17.2C280.3,124.4,272.3,128.3,263.9,132.8L263.9,132.8z"/>
		<path id="s3" d="M452.3,675.4l-15.2-81.9c-11.8,2.1-23.9,3.1-36.1,3.1c-8.4,0-16.7-0.5-24.9-1.5l-10.8,82.4
			c12.6,1.5,23.3,2.2,36.2,2.2C420.1,679.9,434.3,678.7,452.3,675.4L452.3,675.4z"/>
		<path id="s10" d="M689.7,428.8l-83-10.8c-2.5,17.8-7.3,35.2-14.3,51.9c-0.9,2.2-1.9,4.4-2.9,6.6l75.7,36c1.7-3.6,4.1-9.6,5.7-13.3
			C681.5,473.9,686.1,455.8,689.7,428.8L689.7,428.8z"/>
		<path id="s17" class="st0" d="M538.4,645.7l-39.9-73.3c-5.4,2.9-11,5.5-16.7,8c-13.2,5.6-26.9,9.7-40.8,12.5l15.2,81.9
			c21.2-4.1,36.9-8.6,57-17.1C522.1,653.8,530,650.2,538.4,645.7L538.4,645.7z"/>
		<path id="s13" d="M657.9,251.5l-73.5,40c2.9,5.4,5.5,11,8,16.7c5.6,13.2,9.7,26.9,12.5,40.8l82.2-15.3
			c-4.1-21.2-10.4-40.9-18.9-61C664.4,263.9,662.4,259.9,657.9,251.5L657.9,251.5z"/>
		<path id="s2" d="M611.1,590.7l-60.7-57.5c-0.8,0.9-1.7,1.7-2.5,2.6c-13.7,13.7-29.1,25.3-45.8,34.6l39.9,73.3
			c25.4-14,40.2-24.1,61-44.9C604.4,597.3,609.7,592.3,611.1,590.7L611.1,590.7z"/>
		<path id="s6" class="st0" d="M605.6,352.9c2.1,11.8,3.1,23.9,3.1,36.1c0,8.4-0.5,16.7-1.5,24.9l83,10.9
			c1.5-12.6,2.2-22.9,2.2-35.8c0-18.6-1.3-33.4-4.5-51.4L605.6,352.9z"/>
		<path id="s11" class="st0" d="M115.2,440.2c-3.2-18-4.5-32.6-4.5-51.2c0-12.9,0.6-23.2,2.2-35.8l82,10.8c-1,8.2-1.5,16.5-1.5,24.9
			c0,12.2,1,24.2,3.1,36.1L115.2,440.2z"/>
		<path id="s15" class="st0" d="M587.7,480.1c-9,18.4-20.6,35.2-34.6,50.3l60.7,57.5c21.5-23,35.8-43.7,49.4-71.8L587.7,480.1z"/>
	</g>
	<g id="d">
		<path id="d2" class="st1" d="M608.8,599.1c-21,21-39.3,34.4-65,48.6l16.4,29.9c30.7-16.9,54.4-35.1,78.6-60.4l-25.2-23
			C612.2,595.7,610.3,597.5,608.8,599.1L608.8,599.1z"/>
		<path id="d17" class="st2" d="M514.3,661.8c-20.3,8.6-35.8,13-57.2,17.1l6.3,33.7c34.4-6.6,62.6-16.6,93.5-33.2l-16.7-29.8
			C531.6,654.2,523.3,658.1,514.3,661.8L514.3,661.8z"/>
		<path id="d15" class="st2" d="M616.7,590.9l24.9,23.3c24-25.6,40.9-50.2,56.1-81.8L667,518C653.3,546.4,638.4,567.7,616.7,590.9
			L616.7,590.9z"/>
		<path id="d6" class="st2" d="M725.4,330.6l-33,6.3c3.2,18.2,4.3,33.3,4.3,52.1c0,13-0.6,23.1-2.2,35.8l33.6,4.9
			C732.4,395,731.6,365.1,725.4,330.6L725.4,330.6z"/>
		<path id="d14" class="st1" d="M130.5,272c1.6-3.7,1.8-4.1,3.5-7.7l-31.4-15.1c-14.9,31.7-23.4,60.4-28.1,95.1l34.7,4
			C112.9,320.9,119.7,297.6,130.5,272L130.5,272z"/>
		<path id="d10" class="st1" d="M673.4,504.1c-1.6,3.7-2.7,6.3-4.4,9.9l30.5,14.9c14.9-31.7,23.4-60.4,28.1-95.1l-33.7-4
			C690.1,457,684.2,478.6,673.4,504.1L673.4,504.1z"/>
		<path id="d11" class="st2" d="M106.4,389c0-13,0.7-23.7,2.2-36.5l-34.7-4.3c-4.4,34.8-3.6,64.7,2.7,99.1l34-6
			C107.4,423.2,106.4,407.8,106.4,389L106.4,389z"/>
		<path id="d19_1_" class="st2" d="M285.8,660.6c-3.7-1.6-6-2.6-9.6-4.3l-15,31.1c31.7,14.9,60.4,23.4,95.1,28.1l4.7-34.1
			C333.7,677.7,311.3,671.4,285.8,660.6L285.8,660.6z"/>
		<path id="d8" class="st1" d="M129.4,503.5c-8.6-20.3-13.6-36.8-17.7-58.2l-34.4,6.1c6.6,34.4,16.6,62.6,33.2,93.4l30.7-16.5
			C136.7,519.9,133.1,512.5,129.4,503.5L129.4,503.5z"/>
		<path id="d16" class="st2" d="M193.1,598c-21-21-35.9-40.7-50.1-66.4l-30.6,16.7c16.9,30.7,35.1,54.4,60.4,78.6l24.2-25
			C195.5,600.4,194.7,599.5,193.1,598L193.1,598z"/>
		<path id="d7" class="st1" d="M199.6,604.3l-23.8,25.4c25.6,24,50.2,40.9,81.8,56.1l14.8-31.3C243.9,640.7,222.8,626,199.6,604.3
			L199.6,604.3z"/>
		<path id="d3" class="st1" d="M401.5,684.1c-13,0-24.2-0.7-37-2.3l-4.3,34.3c14.6,1.8,28.2,2.8,41.6,2.8c0,0,0,0,0,0
			c18.6,0,37.4-1.8,57.5-5.5l-6.4-33.8C434.8,682.9,420.3,684.2,401.5,684.1z"/>
		<path id="d1" class="st2" d="M514.7,116.3c3.7,1.6,7.6,3.3,11.2,4.9l14.9-30.7c-31.7-14.9-60.4-23.4-95.1-28.1l-4.4,33.9
			C468.6,100.1,489.2,105.6,514.7,116.3L514.7,116.3z"/>
		<path id="d20" class="st1" d="M399.8,93.9c13,0,24.7,0.6,37.5,2.1l4.5-34.1c-14.6-1.8-28.2-2.7-41.6-2.7
			c-18.6,0-37.4,1.8-57.5,5.4l6.5,33.9C367.3,95.3,381,93.8,399.8,93.9z"/>
		<path id="d18" class="st1" d="M602.6,173l23.6-24.6c-25.6-24-50.2-40.9-81.8-56.1l-14.4,31C558.5,137,579.4,151.2,602.6,173
			L602.6,173z"/>
		<path id="d5" class="st2" d="M287.1,116.9c20.3-8.6,36.5-13.5,57.9-17.6l-6.4-33.9c-34.4,6.6-62.6,16.6-93.5,33.2l17.4,30
			C271.1,124,278.1,120.6,287.1,116.9L287.1,116.9z"/>
		<path id="d12" class="st1" d="M192.2,181c21-21,40.6-36,66.2-50.1l-16.7-30.4c-30.7,16.9-54.4,35.1-78.6,60.4l25.1,24.2
			C189.7,183.5,190.7,182.5,192.2,181L192.2,181z"/>
		<path id="d9" class="st2" d="M185.5,187.9l-25.2-24.1c-24,25.6-40.9,50.2-56.1,81.8l31.3,15.2
			C149.4,232.3,163.8,211.1,185.5,187.9L185.5,187.9z"/>
		<path id="d4" class="st2" d="M610,180.1c21,21,35.6,40.1,49.7,65.7l29.9-16.1c-16.9-30.7-35.1-54.4-60.4-78.6l-23,25.2
			c1.6,1.5,1.1,1.1,2.7,2.7L610,180.1z"/>
		<path id="d13" class="st1" d="M673.2,273.4c8.6,20.3,14,37.6,18.1,59l33.4-5.7c-6.6-34.4-16.6-62.6-33.2-93.5l-29.6,16.6
			C666.4,258.3,669.5,264.5,673.2,273.4L673.2,273.4z"/>
	</g>
	<g id="t">
		<path id="t10" class="st1" d="M603.7,417.5L481,401.7c-3.1,12.7-1.5,7.3-3.1,12.7c-0.8,2-1.9,5.3-2.8,7.3l111.6,53.5
			c1-2.1,2-4.3,2.9-6.5C596.6,452.2,601.3,435.1,603.7,417.5L603.7,417.5z"/>
		<path id="t13" class="st1" d="M581.8,292.9l-108.6,59.4c2.6,4.9,1.1,1.5,3.3,6.7c2.8,8.4,0.9,2.5,3.7,12.9l121.7-22.4
			c-2.7-13.8-6.8-27.2-12.3-40.2C587.2,303.7,584.6,298.2,581.8,292.9L581.8,292.9z"/>
		<path id="t3" class="st1" d="M436.5,590.6L414,468.5c-9.1,1.2-0.7,0.1-10.9,0.9c-6.5-0.2-1.6,0-9.9-0.4l-16.7,123.2
			c8.1,1,16.3,1.5,24.5,1.5C413,593.7,424.9,592.7,436.5,590.6L436.5,590.6z"/>
		<path id="t2" class="st1" d="M548.2,531.2l-90-85.1c-0.7,0.8-4.6,4.1-5.3,4.8c-6.6,5.3-1.6,1.4-11.6,8l59.3,108.9
			c16.5-9.2,31.6-20.6,45.1-34.1C546.6,532.9,547.4,532.1,548.2,531.2L548.2,531.2z"/>
		<path id="t8" class="st1" d="M220.2,485.1L330,426c-2.6-4.9-1.3-2.4-3.5-7.6c-3.1-8.8-1.1-3-3.8-12.9l-122.6,23.1
			c2.7,13.8,6.8,27.2,12.3,40.2C214.8,474.3,217.4,479.8,220.2,485.1L220.2,485.1z"/>
		<path id="t14" class="st1" d="M198.3,360.5l123.6,16.7c1.4-8,0.5-4.8,2.7-11.8c0.8-2,2.4-6.8,3.3-8.8l-112.5-53.8
			c-1,2.1-2,4.3-2.9,6.5C205.4,325.8,200.7,342.9,198.3,360.5L198.3,360.5z"/>
		<path id="t7" class="st1" d="M365.1,460.8c-13.2-7.6-9.4-5.1-17.5-12L261.7,539c14.8,13.8,31.4,25.2,49.5,34L365.1,460.8z"/>
		<path id="t9" class="st2" d="M329.4,353.2c6.9-11.8,3.1-6.6,12.2-17L251,249.7c-13.8,14.8-25.2,31.4-34,49.5L329.4,353.2z"/>
		<path id="t4" class="st2" d="M543.2,241.8L458,331.7c0.8,0.7,2.5,2.8,3.3,3.5c7,7.9,0,0,10,13.8l108.5-59.6
			c-9.2-16.5-20.6-31.6-34.1-45.1C544.9,243.4,544,242.6,543.2,241.8L543.2,241.8z"/>
		<path id="t17" class="st2" d="M497.1,569.8l-59.2-109c-4.9,2.6-2.1,1.1-7.3,3.3c-7.3,2.9-2.4,1-13,3.8l22.9,122
			c13.8-2.7,27.2-6.8,40.2-12.3C486.3,575.2,491.8,572.6,497.1,569.8L497.1,569.8z"/>
		<path id="t15" class="st2" d="M473,425.9c-6.3,11.5-2.9,6.1-12.1,17.3l90,85c13.8-14.8,25.2-31.4,34-49.5L473,425.9z"/>
		<path id="t18" class="st1" d="M490.8,205l-53.2,112c12.3,6.8,9.2,5.1,17.6,12l85.1-90C525.5,225.2,508.9,213.8,490.8,205
			L490.8,205z"/>
		<path id="t20" class="st1" d="M365.5,187.4l22.7,122.3c8.4-1.1,3.1-0.6,10.8-1.1c5.5-0.3,4.6-0.2,10.6,0.4l16-123.2
			c-8.1-1-16.3-1.5-24.6-1.5C389,184.3,377.1,185.3,365.5,187.4L365.5,187.4z"/>
		<path id="t5" class="st2" d="M304.9,208.2l59.7,109.2c4.9-2.6,1.5-1.1,6.7-3.3c9.4-3.1,1.4-0.5,12.5-3.7l-22.4-122.3
			c-13.8,2.7-27.2,6.8-40.2,12.3C315.7,202.8,310.2,205.4,304.9,208.2L304.9,208.2z"/>
		<path id="t1" class="st2" d="M429.7,186.7l-15.5,122.8c11.3,2.6,4.4,0.5,14.4,3.7c2,0.8,3.2,1.1,5.1,2l53.6-111.6
			c-2.1-1-4.3-2-6.5-2.9C464.4,193.8,447.3,189.1,429.7,186.7L429.7,186.7z"/>
		<path id="t12" class="st1" d="M253.8,246.8l90.3,85.8c0.7-0.8,1.9-1.8,2.7-2.6c6.4-5.8,2.1-2,14-10.4l-59.3-109.5
			c-16.5,9.2-31.6,20.6-45.1,34.1C255.4,245.1,254.6,245.9,253.8,246.8L253.8,246.8z"/>
		<path id="t6" class="st2" d="M481,376.3c1,9.3,0.5,2.5,1,10.6c0.3,5.3,0,2.1-0.4,10.1l122.6,16.5c1-8.1,1.5-16.3,1.5-24.6
			c0-12-1-23.9-3.1-35.5L481,376.3z"/>
		<path id="t11" class="st2" d="M322.1,402c-1.2-11.1-1.1-6.8-1.1-13c0-6.7,0-1.9,0.4-8.2l-123.7-16.4c-1,8.1-1.5,16.3-1.5,24.6
			c0,12,1,23.9,3.1,35.5L322.1,402z"/>
		<path id="t19" class="st2" d="M372.5,591.7L389,468.5c-11.4-2.7-2.9-0.4-15.1-3.9c-2-0.8-3.7-1.4-5.7-2.3l-53.4,112.4
			c2.1,1,4.3,2,6.5,2.9C337.8,584.6,354.9,589.3,372.5,591.7L372.5,591.7z"/>
		<path id="t16" class="st2" d="M258.8,536.2l86.5-89.6c-0.8-0.7-3.1-3.3-3.9-4.1c-7.9-9.8-4.3-4.1-9.9-13.8l-109.4,59.9
			c9.2,16.5,20.6,31.6,34.1,45.1C257.1,534.6,257.9,535.4,258.8,536.2L258.8,536.2z"/>
	</g>
	<g id="bull">
		<path id="Outer" class="st2" d="M478.6,389c0,42.6-34.6,77.2-77.2,77.2s-77.2-34.5-77.1-77.2c0.1-42.7,34.6-77.2,77.2-77.2
			S478.6,346.3,478.6,389L478.6,389z M401.5,348.1c-22.6,0-40.9,18.3-40.9,40.9s18.3,40.9,40.9,40.9c22.6,0,40.9-18.3,40.9-40.9
			C442.4,366.4,424,348.1,401.5,348.1z"/>
		<circle id="Bull" class="st1" cx="401.5" cy="389" r="37.4"/>
	</g>
</g>
<g id="score">
	<path id="score_1_" d="M371.8,33.9l8.8-6.7c2.2-1.7,3-2.8,3-4.2c0-1.5-1-2.4-2.6-2.4s-2.8,0.9-4.7,3l-4.4-3.7
		c2.5-3.3,5-5.1,9.6-5.1c5.2,0,8.7,3.1,8.7,7.5v0.1c0,3.8-2,5.7-5.5,8.3l-4,2.8h9.7v5.3h-18.7L371.8,33.9L371.8,33.9z M393.1,27.1
		L393.1,27.1c0-6.7,4.2-12.3,11-12.3s10.9,5.5,10.9,12.2V27c0,6.7-4.2,12.3-11,12.3C397.2,39.3,393.1,33.8,393.1,27.1L393.1,27.1z
		 M408.4,27.1L408.4,27.1c0-3.8-1.8-6.5-4.4-6.5s-4.3,2.6-4.3,6.4V27c0,3.8,1.8,6.5,4.4,6.5C406.7,33.5,408.4,30.8,408.4,27.1
		L408.4,27.1z M276.4,57.9l2.2-5.3c2.3,1,4.3,1.3,6.2,0.7c2.1-0.7,3-2.1,2.5-3.7l0-0.1c-0.5-1.6-2.2-2.2-4.1-1.5
		c-1.4,0.4-2.4,1.3-3.2,2.3l-4.4-0.9l-3-11.6l15-4.8l1.6,5.1l-10.1,3.2l0.9,3.5c0.9-0.8,1.8-1.5,3.3-2c4-1.3,8.4-0.2,10,4.7l0,0.1
		c1.6,5-1.3,9.2-6.7,11C282.7,59.9,279.5,59.4,276.4,57.9L276.4,57.9z M171.1,101.5l-2.7,3.1l-4-3.4l4.5-5.6l3.9-2.8l13.8,19.3
		l-5.2,3.7L171.1,101.5z M186.5,106.2l3.3-10.6c0.8-2.7,0.8-4.1,0-5.2c-0.9-1.2-2.2-1.3-3.5-0.4s-1.8,2.4-2,5.2l-5.7-0.4
		c0.2-4.1,1.1-7,4.9-9.7c4.2-3,8.9-2.6,11.5,1.1l0,0.1c2.2,3.1,1.7,5.8,0.4,9.9l-1.6,4.7l7.9-5.7l3.1,4.3l-15.2,10.9L186.5,106.2z
		 M108.3,192.6l-1.8-5.2c2-0.5,3.4-1.4,4.5-2.9c1.6-2.2,1-4.5-1.3-6.5c0.2,1.7-0.2,3.5-1.4,5.2c-2.7,3.7-7,4.7-10.7,1.9l-0.1,0
		c-4.2-3.1-4.5-8.4-1.3-12.7c2.1-2.8,4-3.8,6.5-4.2c2.4-0.4,5.2,0.3,8.7,2.9h0.1c6.2,4.6,8.1,10.8,3.9,16.5
		C113.3,190.5,110.9,191.8,108.3,192.6L108.3,192.6z M105.1,174.4L105.1,174.4c-1.5-1.1-3.4-0.9-4.6,0.8c-1.2,1.6-0.9,3.5,0.6,4.5
		l0.1,0c1.4,1.1,3.3,0.8,4.5-0.9S106.5,175.4,105.1,174.4L105.1,174.4z M46.5,290.2l-0.4,4.1l-5.2-0.5l0.4-7.2l1.5-4.5l22.5,7.7
		l-2.1,6.1L46.5,290.2z M65.9,273.9l-3.7,10.8l-4.7-0.5L47.7,268l2.1-6.3l13.5,4.6l1-2.8l4.6,1.6l-1,2.8l4.3,1.5l-2,6L65.9,273.9z
		 M61.3,272.4l-6.4-2.2l4.6,7.5L61.3,272.4z M33.4,398.9l0.8,4l-5.1,1.2l-1.8-6.9l0.1-4.8l23.8,0.4l-0.1,6.4L33.4,398.9L33.4,398.9z
		 M33.7,384.7l0.8,4l-5.1,1.2l-1.8-6.9l0.1-4.8l23.8,0.4l-0.1,6.4L33.7,384.7z M65,508.6L65,508.6c-2.8,0.8-4.9-0.1-6.7-2.2
		c-0.4,2-1.5,3.8-4,4.6l-0.1,0c-3.6,1.1-7.3-1.6-8.9-6.6c-1.5-5.1,0.1-9.3,3.7-10.4l0.1,0c2.5-0.7,4.3,0.2,5.8,1.6
		c0.4-2.6,1.4-4.7,4.2-5.5l0.1,0c4-1.2,7.8,1.9,9.4,7.3C70.4,502.7,68.9,507.4,65,508.6L65,508.6z M51.7,499.4L51.7,499.4
		c-1.3,0.4-2.1,1.8-1.6,3.5c0.5,1.7,1.9,2.4,3.2,2.1l0.1,0c1.4-0.4,2.2-1.8,1.7-3.5C54.5,499.8,53.1,499,51.7,499.4L51.7,499.4z
		 M60.6,496.2L60.6,496.2c-1.5,0.5-2.1,2.1-1.5,4s2,3,3.4,2.5l0.1,0c1.4-0.4,2.2-1.9,1.6-4S62,495.8,60.6,496.2L60.6,496.2z
		 M110.1,614.5l3,2.8l-3.5,3.9l-5.5-4.6l-2.7-3.9l19.6-13.5l3.6,5.3L110.1,614.5L110.1,614.5z M115.5,595c-0.5,2.4-2,4.9-5.6,7.4
		l-0.1,0c-6.1,4.2-12.7,4.4-16.9-1.7c-1.9-2.7-2.4-5.1-2.3-7.9l5.5-0.1c-0.1,1.8,0.1,3.3,1.2,4.9c1.6,2.3,4,2.3,6.7,0.8
		c-1.5-0.5-3.1-1.2-4.4-3.2c-2.3-3.4-2.2-7.9,1.6-10.6l0.1,0c4.4-3,9.4-1.3,12.3,2.9C115.5,590.3,115.9,592.7,115.5,595L115.5,595z
		 M105.2,589.7L105.2,589.7c-1.4,1-1.8,2.8-0.7,4.5s2.9,1.9,4.3,1l0.1,0c1.4-1,1.8-2.8,0.6-4.5C108.4,589,106.6,588.7,105.2,589.7
		L105.2,589.7z M180.9,684l8.6,6.7l-3.4,4.3l-14.4-11.1l3-3.9l19.7-8.4l5.7,4.4L180.9,684z M295.7,741.9l4.1,0.5l-0.5,5.2l-7.2-0.5
		l-4.5-1.6l8.1-22.4l6.1,2.2L295.7,741.9L295.7,741.9z M291,723.9l-4.4,3.2c-1.1-1.8-2.3-2.9-4.1-3.5c-2.5-0.9-4.5,0.4-5.9,3.1
		c1.5-0.7,3.4-0.8,5.3-0.1c4.3,1.6,6.5,5.4,4.9,9.7l0,0.1c-1.8,4.9-6.7,6.7-11.8,4.9c-3.2-1.2-4.8-2.8-5.9-5.1
		c-1-2.2-1.2-5.1,0.3-9.2l0-0.1c2.6-7.3,8-10.9,14.7-8.5C287.6,719.7,289.6,721.6,291,723.9L291,723.9z M274.6,732.2L274.6,732.2
		c-0.6,1.8,0.1,3.6,2.1,4.3c1.9,0.7,3.6-0.1,4.2-1.9l0-0.1c0.6-1.7-0.2-3.4-2.1-4.1C276.8,729.7,275.1,730.6,274.6,732.2
		L274.6,732.2z M406.2,743.3l-4.3,4c-1.6-1.8-3.4-2.8-5.5-2.9c-1.9-0.1-3.1,0.8-3.1,2.3l0,0.1c-0.1,1.5,1.3,2.5,3.8,2.6l2.8,0.1
		l0.8,3.4l-5.6,4.7l9,0.3l-0.2,5.3l-17.1-0.6l0.2-4.7l5.8-4.6c-3.3-0.9-6-2.9-5.9-6.9l0-0.1c0.2-4.8,4.1-7.7,9.4-7.5
		C400.8,738.9,404,740.7,406.2,743.3L406.2,743.3z M520,737.8l3.6-2l2.6,4.5l-6.1,3.7l-4.6,1.3l-6.4-22.9l6.2-1.7L520,737.8z
		 M499.7,744l10.5-2.9l1.5,5.3l-17.5,4.9l-1.3-4.7l5-20.8l6.9-1.9L499.7,744z M600.5,693l3.7-10.5c0.9-2.6,1-4,0.2-5.2
		c-0.8-1.2-2.2-1.4-3.5-0.5c-1.3,0.9-1.9,2.3-2.2,5.1l-5.7-0.6c0.3-4.1,1.4-7,5.2-9.5c4.3-2.8,9-2.2,11.4,1.5l0,0.1
		c2.1,3.2,1.5,5.9,0,9.9l-1.8,4.6l8.1-5.4l2.9,4.4L603.3,697L600.5,693z M672.2,611.8l-1.8,3.7l-4.7-2.2l2.8-6.6l3-3.7l18.5,14.9
		l-4,5L672.2,611.8z M689.3,613.6l-1.1-5.7c2.5-0.5,4.3-1.3,5.6-2.9c1.4-1.7,1.3-3.4,0-4.4l-0.1,0c-1.3-1.1-3-0.6-4.3,1
		c-0.9,1.1-1.3,2.4-1.4,3.7l-4.1,1.7l-8.9-8l9.9-12.3l4.2,3.4l-6.7,8.3l2.7,2.4c0.3-1.2,0.7-2.2,1.7-3.5c2.7-3.3,6.9-4.8,10.9-1.6
		h0.1c4.1,3.3,4,8.4,0.4,12.9C695.6,611.7,692.6,613.1,689.3,613.6L689.3,613.6z M506.3,36.3l-4.1-0.4l0.4-5.2l7.2,0.3l4.5,1.5
		L507,55.1l-6.1-2L506.3,36.3z M602.1,80l-3.8-1.6l2-4.8l6.7,2.5l3.8,2.8l-14,19.2l-5.2-3.8L602.1,80z M603.4,94.7L603.4,94.7
		c1.7-2.4,4-2.9,6.6-2.2c-0.9-1.9-1.1-4,0.4-6l0-0.1c2.2-3,6.8-3.2,11.1-0.1c4.3,3.1,5.5,7.5,3.3,10.6l0,0.1
		c-1.5,2.1-3.6,2.5-5.6,2.2c1.3,2.3,1.7,4.6-0.1,6.9l0,0.1c-2.5,3.4-7.4,3.2-11.9-0.1C602.5,102.7,600.9,98,603.4,94.7L603.4,94.7z
		 M614.3,101.9L614.3,101.9c0.9-1.3,0.4-3-1.2-4.1c-1.6-1.2-3.4-1.2-4.3,0.1l0,0.1c-0.8,1.1-0.6,2.9,1.2,4.2
		C611.8,103.4,613.5,103.1,614.3,101.9L614.3,101.9z M619.5,94L619.5,94c0.8-1.1,0.6-2.7-0.8-3.8c-1.4-1.1-3-0.8-3.8,0.3l0,0.1
		c-0.9,1.2-0.6,2.8,0.8,3.8C617,95.4,618.6,95.2,619.5,94L619.5,94z M685.5,176.2l-6.7-9.3l3.1-3.6l19,1.4l3.9,5.4l-11.6,8.4
		l1.8,2.4l-4,2.9l-1.8-2.4l-3.7,2.7l-3.7-5.1L685.5,176.2z M689.4,173.4l5.5-4l-8.8-0.6L689.4,173.4z M741.4,247l-2.2-3.4l4.4-2.9
		l4.2,5.9l1.6,4.5l-22.4,8l-2.2-6.1L741.4,247z M731.4,260.5l5.3,2.5c-1.1,2.2-1.4,4.2-0.7,6.2c0.6,1.7,1.9,2.5,3.3,2.1l0.1,0
		c1.4-0.5,1.8-2.1,1-4.4l-0.9-2.6l2.9-2l6.4,3.5l-3-8.5l5-1.8l5.7,16.1l-4.4,1.6l-6.4-3.7c0.4,3.4-0.4,6.6-4.2,8l-0.1,0
		c-4.5,1.6-8.7-1-10.4-6C729.3,267.1,729.8,263.5,731.4,260.5L731.4,260.5z M753.7,370.4c1.7-1.8,4.4-2.9,8.8-3l0.1,0
		c7.4-0.1,13,3.4,13.1,10.8c0,3.3-0.9,5.6-2.5,7.9l-4.7-3c1.1-1.5,1.8-2.8,1.7-4.7c0-2.8-2.1-4.1-5.1-4.4c1,1.2,1.9,2.7,1.9,5.1
		c0,4.1-2.5,7.8-7.3,7.9h-0.1c-5.3,0.1-8.5-4.1-8.6-9.3C751.1,374.3,752.1,372.1,753.7,370.4L753.7,370.4z M759.3,380.5L759.3,380.5
		c1.8,0,3.1-1.3,3.1-3.4c0-2.1-1.3-3.3-3-3.2h-0.1c-1.7,0-3.1,1.3-3,3.4C756.2,379.3,757.5,380.5,759.3,380.5L759.3,380.5z
		 M735.1,496.9l-0.3,4.1l-5.2-0.3l0.1-7.2l1.4-4.5l22.7,6.9L752,502L735.1,496.9z M743.8,488.9L743.8,488.9
		c-6.5-2-10.6-7.7-8.6-14.1c2-6.4,8.5-8.8,14.9-6.9l0.1,0c6.4,1.9,10.5,7.6,8.5,14.1C756.6,488.5,750.1,490.9,743.8,488.9
		L743.8,488.9z M748.2,474.3L748.2,474.3c-3.6-1.1-6.8-0.2-7.5,2.3c-0.8,2.5,1.3,4.9,4.9,6l0.1,0c3.6,1.1,6.7,0.2,7.5-2.3
		C753.8,477.8,751.8,475.4,748.2,474.3L748.2,474.3z"/>
</g>
</svg>
